<?xml version="1.0" encoding="UTF-8" standalone="no"?>
<svg
   version="1.1"
   id="Layer_1"
   x="0px"
   y="0px"
   width="100%"
   viewBox="0 0 534 566"
   enable-background="new 0 0 534 566"
   xml:space="preserve"
   sodipodi:docname="logo.svg"
   inkscape:version="1.2.2 (b0a8486541, 2022-12-01)"
   inkscape:export-filename="logo-64x64.png"
   inkscape:export-xdpi="11.505619"
   inkscape:export-ydpi="11.505619"
   xmlns:inkscape="http://www.inkscape.org/namespaces/inkscape"
   xmlns:sodipodi="http://sodipodi.sourceforge.net/DTD/sodipodi-0.dtd"
   xmlns="http://www.w3.org/2000/svg"
   xmlns:svg="http://www.w3.org/2000/svg"><defs
   id="defs167"><inkscape:path-effect
     effect="fillet_chamfer"
     id="path-effect4148"
     is_visible="true"
     lpeversion="1"
     nodesatellites_param="F,0,0,1,0,0,0,1 @ F,0,0,1,0,0,0,1 @ F,0,0,1,0,0,0,1 @ F,0,0,1,0,46.949502,0,1"
     unit="px"
     method="auto"
     mode="F"
     radius="0"
     chamfer_steps="1"
     flexible="false"
     use_knot_distance="true"
     apply_no_radius="true"
     apply_with_radius="true"
     only_selected="false"
     hide_knots="false" /></defs><sodipodi:namedview
   id="namedview165"
   pagecolor="#ffffff"
   bordercolor="#666666"
   borderopacity="1.0"
   inkscape:showpageshadow="2"
   inkscape:pageopacity="0.0"
   inkscape:pagecheckerboard="0"
   inkscape:deskcolor="#d1d1d1"
   showgrid="false"
   inkscape:lockguides="true"
   inkscape:zoom="1.0265018"
   inkscape:cx="165.12392"
   inkscape:cy="367.26677"
   inkscape:window-width="2510"
   inkscape:window-height="1371"
   inkscape:window-x="0"
   inkscape:window-y="0"
   inkscape:window-maximized="1"
   inkscape:current-layer="Layer_1"><sodipodi:guide
     position="0,566"
     orientation="0,534"
     id="guide409"
     inkscape:locked="true" /><sodipodi:guide
     position="534,566"
     orientation="566,0"
     id="guide411"
     inkscape:locked="true" /><sodipodi:guide
     position="534,0"
     orientation="0,-534"
     id="guide413"
     inkscape:locked="true" /><sodipodi:guide
     position="0,0"
     orientation="-566,0"
     id="guide415"
     inkscape:locked="true" /></sodipodi:namedview>








<path
   fill="#030303"
   opacity="1"
   stroke="none"
   d="m 291.14888,372.38366 c -69.37465,0.003 -137.5531,0.0258 -205.731054,-4.6e-4 -31.322661,-0.0121 -48.666593,-4.29247 -40.832247,-9.96469 4.582864,-3.31806 19.211234,-5.36686 39.298437,-5.38096 46.249194,-0.0325 92.499174,-0.023 138.748814,-0.0242 76.55125,-0.002 153.10267,-0.0196 229.65355,0.014 25.34153,0.0111 42.14474,3.48948 40.7628,8.27334 -1.22923,4.25537 -16.73366,7.04321 -40.42613,7.06455 -53.42498,0.0481 -106.85174,0.0172 -161.47417,0.0184 z"
   id="path128"
   style="stroke-width:1.07269" />
<path
   fill="#040505"
   opacity="1.000000"
   stroke="none"
   d=" M367.927521,466.965393   C366.107208,473.766418 364.359192,480.160339 362.547821,486.786072   C356.999817,486.786072 351.559692,486.786072 345.500854,486.786072   C339.758453,465.816315 333.951172,444.609619 328.025421,422.970245   C333.170319,422.970245 337.841156,422.703125 342.444580,423.142334   C343.730652,423.265015 345.512939,425.294281 345.886475,426.751678   C348.936737,438.652344 351.706970,450.624756 354.784760,463.506226   C358.403229,449.727966 361.834564,436.662231 365.418823,423.014282   C369.277985,423.014282 373.265686,422.693115 377.147949,423.192322   C378.467804,423.362030 380.172485,425.416901 380.594086,426.920746   C383.900177,438.714478 386.937134,450.583679 390.270691,463.240784   C393.688568,449.427948 396.910461,436.407043 400.176056,423.209534   C405.805664,423.209534 411.252899,423.209534 417.083923,423.209534   C411.092468,444.465790 405.162537,465.503693 399.158508,486.804443   C393.675781,486.804443 388.273712,486.804443 382.604248,486.804443   C379.328339,474.483582 376.054871,462.171936 372.514557,448.856689   C370.854675,455.364868 369.427277,460.961578 367.927521,466.965393  z"
   id="path130" />






<path
   fill="#050505"
   opacity="1.000000"
   stroke="none"
   d=" M437.025757,442.140106   C437.024109,440.342743 437.024109,439.030334 437.024109,437.301514   C431.225891,437.301514 425.640747,437.301514 419.668823,437.301514   C419.668823,432.368317 419.668823,427.845612 419.668823,422.989319   C436.192261,422.989319 452.472809,422.986389 468.753326,422.998138   C469.546783,422.998718 470.340179,423.127777 471.390350,423.219391   C471.390350,427.831635 471.390350,432.240295 471.390350,437.073669   C465.601959,437.073669 460.016235,437.073669 454.140289,437.073669   C454.140289,453.731201 454.140289,469.972870 454.140289,486.631836   C448.478241,486.631836 443.093170,486.631836 437.027435,486.631836   C437.027435,472.089142 437.027435,457.357086 437.025757,442.140106  z"
   id="path144" />
<path
   fill="#030303"
   opacity="1.000000"
   stroke="none"
   d=" M304.371918,487.761200   C290.980865,488.584320 283.580353,484.814880 278.649780,474.615173   C282.113403,471.790833 285.669647,468.890930 289.430969,465.823822   C290.484589,467.323334 291.126892,469.243652 292.388092,469.827850   C295.221436,471.140228 298.505737,472.755035 301.321777,472.335541   C302.931976,472.095703 305.018524,468.147247 305.113190,465.796997   C305.608307,453.507507 305.536469,441.195129 305.655640,428.890625   C305.673157,427.082611 305.658051,425.274231 305.658051,423.217041   C311.230927,423.217041 316.449188,423.217041 322.196899,423.217041   C322.196899,428.975830 322.203735,434.566620 322.195312,440.157410   C322.182526,448.639038 322.259308,457.122345 322.116699,465.601898   C321.903656,478.267853 316.904053,484.548615 304.371918,487.761200  z"
   id="path146" />






<g
   id="g28614"
   transform="matrix(1.2928297,0,0,1.3233355,-43.923126,-47.881883)"><path
     fill="#060606"
     opacity="1"
     stroke="none"
     d="m 218.21209,163.53072 c 13.44098,-10.64707 26.63974,-21.02605 39.7698,-31.49115 2.76767,-2.20593 6.01065,-4.32952 8.94297,-1.95293 2.23822,1.81409 4.10702,5.33467 4.28433,8.21053 0.57254,9.28694 0.31702,18.62671 0.32699,27.94616 0.018,16.80857 -0.0357,33.61725 0.0183,50.42566 0.0118,3.68662 -0.49139,7.06559 -4.06436,8.98307 -3.62811,1.94705 -6.76034,0.41387 -9.63177,-1.84217 -14.24802,-11.19461 -28.4744,-22.41672 -42.71353,-33.62262 -2.61087,-2.05472 -5.34983,-3.96017 -7.84534,-6.14508 -4.11426,-3.60211 -4.13208,-8.42419 0.0412,-12.00384 3.39886,-2.91538 7.05994,-5.52503 10.87143,-8.50763 m 27.15845,32.22421 c 3.70245,2.88535 7.4049,5.77069 11.5354,8.98962 0,-18.26544 0,-35.47329 0,-53.6995 -11.67795,9.29426 -22.64435,18.0222 -34.017,27.07344 7.59619,5.93902 14.77221,11.54953 22.4816,17.63644 z"
     id="path132"
     style="fill:#69d24d;fill-opacity:1" /><path
     fill="#050505"
     opacity="1"
     stroke="none"
     d="m 260.7763,238.68089 c -6.95063,4.50934 -13.63458,8.81159 -20.49143,12.81797 -17.34207,10.13296 -34.7828,20.09695 -52.13254,30.21695 -3.40972,1.98886 -6.76959,2.98218 -10.23352,0.59646 -3.39865,-2.34076 -3.17266,-5.77179 -2.56964,-9.42236 3.27765,-19.84152 6.3433,-39.71823 9.65992,-59.55307 1.61575,-9.66303 4.88784,-11.25995 14.17446,-7.68359 18.72635,7.21157 37.5001,14.30069 56.20865,21.55786 6.17862,2.39676 7.34577,5.03314 5.3841,11.46978 m -65.49314,1.39426 c -1.24212,7.53098 -2.48428,15.06198 -3.8594,23.39923 15.96066,-9.31305 30.97439,-18.07355 46.70758,-27.25387 -13.64639,-5.37119 -26.37686,-10.38187 -39.59305,-15.58371 -1.07663,6.51843 -2.07376,12.55548 -3.25513,19.43835 z"
     id="path134"
     style="fill:#10a07e;fill-opacity:1" /><path
     fill="#050505"
     opacity="1"
     stroke="none"
     d="m 115.13253,138.38765 c -8.69037,-3.4272 -17.15,-6.42042 -25.27686,-10.14059 -2.28662,-1.04671 -4.95164,-4.19968 -4.99624,-6.43541 -0.0506,-2.53734 2.00674,-6.21819 4.2449,-7.53014 23.48868,-13.76851 47.16849,-27.21286 70.8652,-40.62353 6.00373,-3.39771 11.74344,0.34301 10.79151,7.38293 -2.20404,16.299 -4.96207,32.52335 -7.52338,48.77358 -0.80218,5.08949 -1.64181,10.17424 -2.55652,15.24452 -1.26513,7.01254 -4.81601,9.11075 -11.33807,6.61517 -11.30395,-4.3253 -22.57117,-8.74672 -34.21054,-13.28653 m 23.94351,-36.47134 c -10.19815,5.82712 -20.3963,11.65423 -31.50851,18.00364 13.77453,5.40937 26.74838,10.50429 40.03674,15.72272 2.33691,-14.31465 4.57553,-28.02708 6.94946,-42.5686 -5.38983,3.0829 -10.11303,5.78448 -15.47769,8.84224 z"
     id="path136"
     style="fill:#f54e4e;fill-opacity:1" /><path
     fill="#050505"
     opacity="1"
     stroke="none"
     d="m 228.2694,139.56087 c -10.39377,4.10348 -20.43106,8.05916 -30.50369,11.92264 -7.29401,2.79773 -10.97382,0.75947 -12.28128,-7.08133 -3.44593,-20.66478 -6.87351,-41.33538 -9.91495,-62.06139 -0.38812,-2.64502 0.84103,-6.25012 2.60419,-8.31448 2.48886,-2.91405 6.10995,-1.635 9.15555,0.10203 23.24514,13.25786 46.48654,26.52236 69.71606,39.80756 3.07159,1.75668 5.8381,4.38457 4.62363,7.95753 -0.88224,2.59546 -3.32236,5.45728 -5.80027,6.57146 -8.91797,4.00984 -18.14663,7.32872 -27.59924,11.09598 m -13.63733,-10.14273 c 7.7894,-3.04376 15.57883,-6.08753 24.16315,-9.44191 -16.13519,-9.20921 -31.35196,-17.89424 -47.47379,-27.09583 2.53653,14.82582 4.90149,28.64888 7.32184,42.79563 5.41824,-2.088 10.35877,-3.9919 15.9888,-6.25789 z"
     id="path138"
     style="fill:#fba414;fill-opacity:1" /><path
     fill="#040504"
     opacity="1"
     stroke="none"
     d="m 114.64037,218.0081 c 11.21512,-4.25259 22.03113,-8.47522 32.87857,-12.61538 8.68357,-3.31424 11.82367,-1.47138 13.32581,7.67032 3.31686,20.18582 6.61267,40.37509 9.96573,60.5549 0.58285,3.50778 0.39755,6.71408 -2.81989,8.90475 -3.1918,2.17319 -6.26343,1.24991 -9.33697,-0.52878 -22.98923,-13.30359 -45.99668,-26.57571 -69.01169,-39.83468 -3.05066,-1.75754 -5.46127,-3.86591 -5.12227,-7.80042 0.34962,-4.05768 3.02461,-5.97067 6.52922,-7.29367 7.76071,-2.92984 15.47357,-5.98651 23.59149,-9.05704 m 9.39615,11.87702 c -5.19876,1.97607 -10.39755,3.95212 -16.13708,6.13376 15.8139,9.19513 30.89804,17.96594 46.60443,27.09854 -2.38648,-14.63513 -4.63388,-28.41751 -6.92206,-42.45007 -8.03781,3.15524 -15.4263,6.0556 -23.54529,9.21777 z"
     id="path140"
     style="fill:#338ff0;fill-opacity:1" /><path
     fill="#030303"
     opacity="1"
     stroke="none"
     d="m 121.29427,158.34606 c 5.78519,4.51651 11.37476,8.70938 16.79215,13.11398 5.30896,4.31641 5.27823,8.94247 -0.092,13.2301 -16.37064,13.07044 -32.81806,26.04468 -49.2099,39.08862 -2.91545,2.31998 -5.98537,3.74433 -9.61086,1.91199 -3.52955,-1.78387 -4.54806,-4.89752 -4.5376,-8.7211 0.0701,-25.62411 0.0361,-51.24853 0.039,-76.87285 1.1e-4,-0.83165 -0.24348,-1.80772 0.10095,-2.46952 1.37244,-2.63688 2.4168,-5.77898 4.54955,-7.60421 2.91934,-2.49843 5.98408,-0.25868 8.49907,1.72454 10.57461,8.33856 21.09445,16.74653 31.63455,25.12884 0.52048,0.41394 1.04266,0.82578 1.83505,1.46961 m -4.79574,14.26852 c -9.0221,-7.11084 -18.04422,-14.22168 -27.36978,-21.57169 0,18.30066 0,35.66385 0,53.97031 6.12811,-4.86587 11.54559,-9.20752 17.00717,-13.49301 5.55798,-4.36108 11.15942,-8.66684 17.01053,-13.20523 -2.3443,-2.01486 -4.22367,-3.63013 -6.64792,-5.70038 z"
     id="path142"
     style="fill:#884dc2;fill-opacity:1" /></g>
<g
   id="g343"
   transform="matrix(9.5279953e-4,-0.56594213,0.58179215,9.7948405e-4,5.6614446,354.80355)"><path
     fill="#020202"
     opacity="1"
     stroke="none"
     d="m -261.5411,180.96036 c 2.64304,-26.56986 13.66566,-48.24308 34.3548,-64.6063 36.86846,-29.159572 92.86476,-23.896846 122.9728,12.15879 36.031825,43.14964 25.889857,108.36094 -22.13103,135.73164 -3.16718,1.80521 -4.20892,3.84451 -4.19174,7.46562 0.17407,36.66526 0.10287,73.33158 0.21206,109.99729 0.0226,7.57895 -2.3032,13.84408 -7.91435,19.16 -5.91975,5.60828 -11.26672,11.8158 -17.01381,17.61292 -9.15156,9.23129 -23.29841,9.70855 -32.76396,0.70227 -7.11249,-6.7674 -13.74737,-14.0542 -20.35785,-21.32526 -3.94548,-4.33978 -5.48237,-9.65662 -5.46701,-15.62219 0.0957,-37.16602 0.0242,-74.33243 0.0693,-111.4986 0.003,-2.63045 -0.29861,-4.51657 -2.96535,-6.10472 -31.50975,-18.76549 -46.08964,-46.74689 -44.80385,-83.67146 m 75.61356,123.10452 c -0.003,24.15515 -0.0356,48.31039 0.0457,72.46527 0.006,1.88257 0.24934,4.21094 1.33788,5.56262 3.8377,4.76538 8.09187,9.19541 12.51191,14.11292 3.30707,-3.55362 6.15883,-7.0188 9.43099,-10.02667 3.61603,-3.32398 4.651,-7.1514 4.62466,-11.97645 -0.19919,-36.48172 0.18726,-72.97039 -0.4062,-109.4439 -0.18177,-11.17072 3.31173,-18.02987 13.78553,-22.44506 11.31638,-4.77041 19.91936,-13.35969 25.73688,-24.18489 12.21047,-22.72113 11.34543,-45.33943 -3.46873,-66.3726 -15.38004,-21.83662 -37.0447,-30.09464 -63.3093,-24.83431 -30.00241,6.00892 -51.30996,36.40677 -47.4638,66.80936 2.96111,23.40648 15.23545,40.04596 36.40362,49.99571 7.90041,3.71346 10.86965,9.58252 10.79465,17.85803 -0.12528,13.8256 -0.0277,27.65322 -0.0238,42.47997 z"
     id="path126" /><path
     fill="#040404"
     opacity="1"
     stroke="none"
     d="m -191.63495,158.01002 c 4.35795,-9.67285 11.54046,-14.07322 21.45364,-13.4624 8.05731,0.49647 15.24613,6.42932 17.67232,14.58476 2.50404,8.41707 -0.45384,17.31916 -7.51273,22.61052 -6.76367,5.07012 -16.936,5.25093 -23.8404,0.42379 -7.73116,-5.40514 -10.62142,-14.12128 -7.77283,-24.15667 z"
     id="path162" /></g>
<path
   id="rect405"
   style="stroke-width:27.5555"
   d="M 368.92948,2.5749207e-5 H 533.92951 V 165.00003 H 415.87898 a 46.949502,46.949502 45 0 1 -46.9495,-46.9495 z"
   inkscape:path-effect="#path-effect4148"
   inkscape:original-d="M 368.92948,2.5749207e-5 H 533.92951 V 165.00003 H 368.92948 Z" /><rect
   style="fill:none;fill-opacity:1;stroke:#000000;stroke-width:28.4469;stroke-dasharray:none;stroke-opacity:1"
   id="rect4251"
   width="505.55304"
   height="537.55304"
   x="14.223475"
   y="14.223475" /></svg>
